<svg width="200" height="auto" viewBox="0 0 485 57" fill="none" xmlns="http://www.w3.org/2000/svg">
<path d="M45.345 3.225V42H34.565V20.605L27.25 42H18.23L10.86 20.44V42H0.0800001V3.225H13.115L22.85 28.415L32.365 3.225H45.345ZM46.9714 26.545C46.9714 23.355 47.5397 20.5683 48.6764 18.185C49.8497 15.8017 51.4264 13.9683 53.4064 12.685C55.423 11.4017 57.6597 10.76 60.1164 10.76C62.243 10.76 64.0764 11.1817 65.6164 12.025C67.1564 12.8683 68.348 14.005 69.1914 15.435V11.145H79.9714V42H69.1914V37.71C68.348 39.14 67.138 40.2767 65.5614 41.12C64.0214 41.9633 62.2064 42.385 60.1164 42.385C57.6597 42.385 55.423 41.7433 53.4064 40.46C51.4264 39.1767 49.8497 37.3433 48.6764 34.96C47.5397 32.54 46.9714 29.735 46.9714 26.545ZM69.1914 26.545C69.1914 24.565 68.6414 23.0067 67.5414 21.87C66.478 20.7333 65.158 20.165 63.5814 20.165C61.968 20.165 60.6297 20.7333 59.5664 21.87C58.503 22.97 57.9714 24.5283 57.9714 26.545C57.9714 28.525 58.503 30.1017 59.5664 31.275C60.6297 32.4117 61.968 32.98 63.5814 32.98C65.158 32.98 66.478 32.4117 67.5414 31.275C68.6414 30.1383 69.1914 28.5617 69.1914 26.545ZM101.569 32.815V42H96.8942C89.0108 42 85.0692 38.095 85.0692 30.285V20.11H81.2742V11.145H85.0692V3.665H95.9042V11.145H101.514V20.11H95.9042V30.45C95.9042 31.2933 96.0875 31.8983 96.4542 32.265C96.8575 32.6317 97.5175 32.815 98.4342 32.815H101.569ZM124.059 10.87C127.579 10.87 130.365 12.0617 132.419 14.445C134.509 16.7917 135.554 19.9817 135.554 24.015V42H124.774V25.445C124.774 23.685 124.315 22.31 123.399 21.32C122.482 20.2933 121.254 19.78 119.714 19.78C118.1 19.78 116.835 20.2933 115.919 21.32C115.002 22.31 114.544 23.685 114.544 25.445V42H103.764V1.3H114.544V15.545C115.497 14.1517 116.78 13.0333 118.394 12.19C120.044 11.31 121.932 10.87 124.059 10.87ZM168.199 26.215C168.199 27.0583 168.144 27.9017 168.034 28.745H147.629C147.739 30.4317 148.197 31.6967 149.004 32.54C149.847 33.3467 150.91 33.75 152.194 33.75C153.99 33.75 155.274 32.9433 156.044 31.33H167.539C167.062 33.4567 166.127 35.3633 164.734 37.05C163.377 38.7 161.654 40.0017 159.564 40.955C157.474 41.9083 155.164 42.385 152.634 42.385C149.59 42.385 146.877 41.7433 144.494 40.46C142.147 39.1767 140.295 37.3433 138.939 34.96C137.619 32.5767 136.959 29.7717 136.959 26.545C136.959 23.3183 137.619 20.5317 138.939 18.185C140.259 15.8017 142.092 13.9683 144.439 12.685C146.822 11.4017 149.554 10.76 152.634 10.76C155.677 10.76 158.372 11.3833 160.719 12.63C163.065 13.8767 164.899 15.6733 166.219 18.02C167.539 20.33 168.199 23.0617 168.199 26.215ZM157.199 23.52C157.199 22.2 156.759 21.1733 155.879 20.44C154.999 19.67 153.899 19.285 152.579 19.285C151.259 19.285 150.177 19.6517 149.334 20.385C148.49 21.0817 147.94 22.1267 147.684 23.52H157.199ZM201.43 11.145V42H190.595V37.6C189.679 38.9933 188.414 40.13 186.8 41.01C185.187 41.8533 183.335 42.275 181.245 42.275C177.652 42.275 174.81 41.1017 172.72 38.755C170.667 36.3717 169.64 33.145 169.64 29.075V11.145H180.365V27.7C180.365 29.46 180.824 30.8533 181.74 31.88C182.694 32.87 183.94 33.365 185.48 33.365C187.057 33.365 188.304 32.87 189.22 31.88C190.137 30.8533 190.595 29.46 190.595 27.7V11.145H201.43ZM217.96 42.385C215.174 42.385 212.68 41.9267 210.48 41.01C208.317 40.0567 206.594 38.7733 205.31 37.16C204.064 35.51 203.367 33.6583 203.22 31.605H213.67C213.817 32.595 214.275 33.365 215.045 33.915C215.815 34.465 216.769 34.74 217.905 34.74C218.785 34.74 219.482 34.5567 219.995 34.19C220.509 33.8233 220.765 33.3467 220.765 32.76C220.765 31.99 220.344 31.4217 219.5 31.055C218.657 30.6883 217.264 30.285 215.32 29.845C213.12 29.405 211.287 28.91 209.82 28.36C208.354 27.81 207.07 26.9117 205.97 25.665C204.907 24.4183 204.375 22.7317 204.375 20.605C204.375 18.7717 204.87 17.1217 205.86 15.655C206.85 14.1517 208.299 12.96 210.205 12.08C212.149 11.2 214.477 10.76 217.19 10.76C221.224 10.76 224.395 11.75 226.705 13.73C229.015 15.71 230.354 18.3133 230.72 21.54H220.985C220.802 20.55 220.362 19.7983 219.665 19.285C219.005 18.735 218.107 18.46 216.97 18.46C216.09 18.46 215.412 18.625 214.935 18.955C214.495 19.285 214.275 19.7433 214.275 20.33C214.275 21.0633 214.697 21.6317 215.54 22.035C216.384 22.4017 217.74 22.7867 219.61 23.19C221.847 23.6667 223.699 24.1983 225.165 24.785C226.669 25.3717 227.97 26.325 229.07 27.645C230.207 28.9283 230.775 30.6883 230.775 32.925C230.775 34.7217 230.244 36.335 229.18 37.765C228.154 39.195 226.669 40.3317 224.725 41.175C222.819 41.9817 220.564 42.385 217.96 42.385ZM262.882 42L253.367 25.94H246.272V42H242.422V3.555H253.972C258.262 3.555 261.507 4.58166 263.707 6.635C265.944 8.68833 267.062 11.3833 267.062 14.72C267.062 17.5067 266.256 19.89 264.642 21.87C263.066 23.8133 260.719 25.0783 257.602 25.665L267.502 42H262.882ZM246.272 22.805H254.027C257.034 22.805 259.289 22.0717 260.792 20.605C262.332 19.1383 263.102 17.1767 263.102 14.72C263.102 12.19 262.369 10.2467 260.902 8.89C259.436 7.49666 257.126 6.8 253.972 6.8H246.272V22.805ZM285.098 42.44C282.274 42.44 279.726 41.8167 277.453 40.57C275.216 39.2867 273.438 37.49 272.118 35.18C270.834 32.8333 270.193 30.1017 270.193 26.985C270.193 23.8683 270.853 21.155 272.173 18.845C273.493 16.4983 275.289 14.7017 277.563 13.455C279.836 12.1717 282.384 11.53 285.208 11.53C288.031 11.53 290.579 12.1717 292.853 13.455C295.163 14.7017 296.959 16.4983 298.243 18.845C299.563 21.155 300.223 23.8683 300.223 26.985C300.223 30.065 299.563 32.7783 298.243 35.125C296.923 37.4717 295.108 39.2867 292.798 40.57C290.488 41.8167 287.921 42.44 285.098 42.44ZM285.098 39.085C287.078 39.085 288.911 38.645 290.598 37.765C292.284 36.8483 293.641 35.4917 294.668 33.695C295.731 31.8617 296.263 29.625 296.263 26.985C296.263 24.345 295.749 22.1267 294.723 20.33C293.696 18.4967 292.339 17.14 290.653 16.26C288.966 15.3433 287.133 14.885 285.153 14.885C283.173 14.885 281.339 15.3433 279.653 16.26C277.966 17.14 276.609 18.4967 275.583 20.33C274.593 22.1267 274.098 24.345 274.098 26.985C274.098 29.625 274.593 31.8617 275.583 33.695C276.609 35.4917 277.948 36.8483 279.598 37.765C281.284 38.645 283.118 39.085 285.098 39.085ZM302.731 26.93C302.731 23.85 303.354 21.155 304.601 18.845C305.847 16.4983 307.552 14.7017 309.716 13.455C311.916 12.1717 314.391 11.53 317.141 11.53C319.781 11.53 322.164 12.1717 324.291 13.455C326.417 14.7383 327.976 16.4067 328.966 18.46V1.3H332.816V42H328.966V35.29C328.049 37.38 326.546 39.1033 324.456 40.46C322.366 41.78 319.909 42.44 317.086 42.44C314.336 42.44 311.861 41.7983 309.661 40.515C307.497 39.2317 305.792 37.4167 304.546 35.07C303.336 32.7233 302.731 30.01 302.731 26.93ZM328.966 26.985C328.966 24.565 328.471 22.4383 327.481 20.605C326.491 18.7717 325.134 17.36 323.411 16.37C321.724 15.38 319.854 14.885 317.801 14.885C315.674 14.885 313.767 15.3617 312.081 16.315C310.394 17.2683 309.056 18.6617 308.066 20.495C307.112 22.2917 306.636 24.4367 306.636 26.93C306.636 29.3867 307.112 31.55 308.066 33.42C309.056 35.2533 310.394 36.665 312.081 37.655C313.767 38.6083 315.674 39.085 317.801 39.085C319.854 39.085 321.724 38.59 323.411 37.6C325.134 36.61 326.491 35.1983 327.481 33.365C328.471 31.5317 328.966 29.405 328.966 26.985ZM342.705 17.305C343.548 15.435 344.832 13.9867 346.555 12.96C348.315 11.9333 350.46 11.42 352.99 11.42V15.435H351.945C349.158 15.435 346.922 16.1867 345.235 17.69C343.548 19.1933 342.705 21.705 342.705 25.225V42H338.855V11.97H342.705V17.305ZM357.957 6.305C357.187 6.305 356.527 6.03 355.977 5.48C355.427 4.93 355.152 4.25167 355.152 3.445C355.152 2.63833 355.427 1.97833 355.977 1.465C356.527 0.914998 357.187 0.639998 357.957 0.639998C358.727 0.639998 359.387 0.914998 359.937 1.465C360.487 1.97833 360.762 2.63833 360.762 3.445C360.762 4.25167 360.487 4.93 359.937 5.48C359.387 6.03 358.727 6.305 357.957 6.305ZM359.882 11.97V42H356.032V11.97H359.882ZM378.445 11.53C381.269 11.53 383.725 12.19 385.815 13.51C387.905 14.83 389.409 16.4983 390.325 18.515V11.97H394.175V42.77C394.175 45.52 393.57 47.9583 392.36 50.085C391.187 52.2117 389.537 53.8433 387.41 54.98C385.284 56.1533 382.864 56.74 380.15 56.74C376.3 56.74 373.092 55.8233 370.525 53.99C367.995 52.1567 366.419 49.6633 365.795 46.51H369.59C370.25 48.6 371.497 50.2683 373.33 51.515C375.2 52.7617 377.474 53.385 380.15 53.385C382.094 53.385 383.835 52.9633 385.375 52.12C386.915 51.3133 388.125 50.1033 389.005 48.49C389.885 46.8767 390.325 44.97 390.325 42.77V35.345C389.372 37.3983 387.85 39.1033 385.76 40.46C383.707 41.78 381.269 42.44 378.445 42.44C375.695 42.44 373.22 41.7983 371.02 40.515C368.857 39.2317 367.152 37.4167 365.905 35.07C364.695 32.7233 364.09 30.01 364.09 26.93C364.09 23.85 364.695 21.155 365.905 18.845C367.152 16.4983 368.857 14.7017 371.02 13.455C373.22 12.1717 375.695 11.53 378.445 11.53ZM390.325 26.985C390.325 24.565 389.83 22.4383 388.84 20.605C387.85 18.7717 386.494 17.36 384.77 16.37C383.084 15.38 381.214 14.885 379.16 14.885C377.034 14.885 375.127 15.3617 373.44 16.315C371.754 17.2683 370.415 18.6617 369.425 20.495C368.472 22.2917 367.995 24.4367 367.995 26.93C367.995 29.3867 368.472 31.55 369.425 33.42C370.415 35.2533 371.754 36.665 373.44 37.655C375.127 38.6083 377.034 39.085 379.16 39.085C381.214 39.085 383.084 38.59 384.77 37.6C386.494 36.61 387.85 35.1983 388.84 33.365C389.83 31.5317 390.325 29.405 390.325 26.985ZM426.229 11.97V42H422.379V36.72C421.499 38.59 420.143 40.02 418.309 41.01C416.476 42 414.423 42.495 412.149 42.495C408.556 42.495 405.623 41.395 403.349 39.195C401.076 36.9583 399.939 33.7317 399.939 29.515V11.97H403.734V29.075C403.734 32.3383 404.541 34.8317 406.154 36.555C407.804 38.2783 410.041 39.14 412.864 39.14C415.761 39.14 418.071 38.2233 419.794 36.39C421.518 34.5567 422.379 31.8617 422.379 28.305V11.97H426.229ZM459.439 25.445C459.439 26.765 459.402 27.7733 459.329 28.47H434.414C434.524 30.7433 435.074 32.6867 436.064 34.3C437.054 35.9133 438.356 37.1417 439.969 37.985C441.582 38.7917 443.342 39.195 445.249 39.195C447.742 39.195 449.832 38.59 451.519 37.38C453.242 36.17 454.379 34.5383 454.929 32.485H458.999C458.266 35.4183 456.689 37.82 454.269 39.69C451.886 41.5233 448.879 42.44 445.249 42.44C442.426 42.44 439.896 41.8167 437.659 40.57C435.422 39.2867 433.662 37.49 432.379 35.18C431.132 32.8333 430.509 30.1017 430.509 26.985C430.509 23.8683 431.132 21.1367 432.379 18.79C433.626 16.4433 435.367 14.6467 437.604 13.4C439.841 12.1533 442.389 11.53 445.249 11.53C448.109 11.53 450.602 12.1533 452.729 13.4C454.892 14.6467 456.542 16.3333 457.679 18.46C458.852 20.55 459.439 22.8783 459.439 25.445ZM455.534 25.335C455.571 23.0983 455.112 21.1917 454.159 19.615C453.242 18.0383 451.977 16.8467 450.364 16.04C448.751 15.2333 446.991 14.83 445.084 14.83C442.224 14.83 439.786 15.7467 437.769 17.58C435.752 19.4133 434.634 21.9983 434.414 25.335H455.534ZM474.073 42.44C470.626 42.44 467.803 41.6517 465.603 40.075C463.44 38.4617 462.23 36.28 461.973 33.53H465.933C466.116 35.2167 466.905 36.5917 468.298 37.655C469.728 38.6817 471.635 39.195 474.018 39.195C476.108 39.195 477.74 38.7 478.913 37.71C480.123 36.72 480.728 35.4917 480.728 34.025C480.728 32.9983 480.398 32.155 479.738 31.495C479.078 30.835 478.235 30.3217 477.208 29.955C476.218 29.5517 474.861 29.13 473.138 28.69C470.901 28.1033 469.086 27.5167 467.693 26.93C466.3 26.3433 465.108 25.4817 464.118 24.345C463.165 23.1717 462.688 21.6133 462.688 19.67C462.688 18.2033 463.128 16.8467 464.008 15.6C464.888 14.3533 466.135 13.3633 467.748 12.63C469.361 11.8967 471.195 11.53 473.248 11.53C476.475 11.53 479.078 12.355 481.058 14.005C483.038 15.6183 484.101 17.855 484.248 20.715H480.398C480.288 18.955 479.591 17.5433 478.308 16.48C477.061 15.38 475.338 14.83 473.138 14.83C471.195 14.83 469.618 15.2883 468.408 16.205C467.198 17.1217 466.593 18.2583 466.593 19.615C466.593 20.7883 466.941 21.76 467.638 22.53C468.371 23.2633 469.27 23.85 470.333 24.29C471.396 24.6933 472.826 25.1517 474.623 25.665C476.786 26.2517 478.51 26.82 479.793 27.37C481.076 27.92 482.176 28.7267 483.093 29.79C484.01 30.8533 484.486 32.265 484.523 34.025C484.523 35.6383 484.083 37.0867 483.203 38.37C482.323 39.6167 481.095 40.6067 479.518 41.34C477.941 42.0733 476.126 42.44 474.073 42.44Z" fill="#fff"/>
</svg>
